<?xml version="1.0" encoding="utf-8"?>
<!-- Generator: Adobe Illustrator 15.0.0, SVG Export Plug-In . SVG Version: 6.00 Build 0)  -->
<!DOCTYPE svg PUBLIC "-//W3C//DTD SVG 1.0//EN" "http://www.w3.org/TR/2001/REC-SVG-20010904/DTD/svg10.dtd">
<svg version="1.0" xmlns="http://www.w3.org/2000/svg" xmlns:xlink="http://www.w3.org/1999/xlink" x="0px" y="0px" width="1400px"
	 height="980px" viewBox="0 0 1400 980" enable-background="new 0 0 1400 980" xml:space="preserve">
<g id="background">
	<rect fill="#FFCB05" width="1400" height="980"/>
</g>
<g id="icons">
	<g>
		<g>
			
				<polygon fill="none" stroke="#000000" stroke-width="4" stroke-linecap="round" stroke-linejoin="round" stroke-miterlimit="10" points="
				1281.195,194.152 1253.55,194.152 1232.094,118.367 1302.65,118.367 			"/>
			
				<polygon fill="none" stroke="#000000" stroke-width="4" stroke-linecap="round" stroke-linejoin="round" stroke-miterlimit="10" points="
				1281.195,194.152 1253.55,194.152 1240.676,244.19 1294.068,244.19 			"/>
		</g>
		<g>
			
				<polygon fill="none" stroke="#000000" stroke-width="4" stroke-linecap="round" stroke-linejoin="round" stroke-miterlimit="10" points="
				1222.358,221.754 1201.452,221.754 1185.226,164.447 1238.581,164.447 			"/>
			
				<polygon fill="none" stroke="#000000" stroke-width="4" stroke-linecap="round" stroke-linejoin="round" stroke-miterlimit="10" points="
				1222.358,221.754 1201.452,221.754 1191.717,259.593 1232.094,259.593 			"/>
		</g>
		<g>
			<path fill="none" stroke="#000000" stroke-width="4" stroke-linecap="round" stroke-linejoin="round" stroke-miterlimit="10" d="
				M1072.318,106.575c35.545,0,75.191-34.643,131.241-34.643c0,0-12.58,20.849-19.143,52.412
				c-6.395,30.789-19.117,121.673-19.117,121.673h-73.864L1072.318,106.575z"/>
			
				<line fill="none" stroke="#000000" stroke-width="4" stroke-linecap="round" stroke-linejoin="round" stroke-miterlimit="10" x1="1075.859" y1="132.391" x2="1107.679" y2="132.391"/>
			
				<line fill="none" stroke="#000000" stroke-width="4" stroke-linecap="round" stroke-linejoin="round" stroke-miterlimit="10" x1="1078.499" y1="151.664" x2="1107.679" y2="151.664"/>
			
				<line fill="none" stroke="#000000" stroke-width="4" stroke-linecap="round" stroke-linejoin="round" stroke-miterlimit="10" x1="1081.144" y1="170.938" x2="1107.679" y2="170.938"/>
			
				<line fill="none" stroke="#000000" stroke-width="4" stroke-linecap="round" stroke-linejoin="round" stroke-miterlimit="10" x1="1083.783" y1="190.211" x2="1107.679" y2="190.211"/>
			
				<line fill="none" stroke="#000000" stroke-width="4" stroke-linecap="round" stroke-linejoin="round" stroke-miterlimit="10" x1="1086.424" y1="209.483" x2="1107.679" y2="209.483"/>
			
				<line fill="none" stroke="#000000" stroke-width="4" stroke-linecap="round" stroke-linejoin="round" stroke-miterlimit="10" x1="1089.068" y1="228.758" x2="1107.679" y2="228.758"/>
		</g>
	</g>
	<g>
		
			<polygon fill="none" stroke="#000000" stroke-width="4" stroke-linecap="round" stroke-linejoin="round" stroke-miterlimit="10" points="
			178.326,259.593 115.423,259.593 106.841,117.248 186.908,117.248 		"/>
		
			<polygon fill="none" stroke="#000000" stroke-width="4" stroke-linecap="round" stroke-linejoin="round" stroke-miterlimit="10" points="
			174.035,56.543 119.714,56.543 106.841,92.765 186.908,92.765 		"/>
		
			<polygon fill="none" stroke="#000000" stroke-width="4" stroke-linecap="round" stroke-linejoin="round" stroke-miterlimit="10" points="
			164.508,56.543 129.241,56.543 133.532,33.353 160.216,33.353 		"/>
		
			<rect x="106.841" y="92.765" fill="none" stroke="#000000" stroke-width="4" stroke-linecap="round" stroke-linejoin="round" stroke-miterlimit="10" width="80.067" height="24.483"/>
		
			<polygon fill="none" stroke="#000000" stroke-width="4" stroke-linecap="round" stroke-linejoin="round" stroke-miterlimit="10" points="
			287.037,259.593 224.134,259.593 215.551,147.286 295.619,147.286 		"/>
		
			<polygon fill="none" stroke="#000000" stroke-width="4" stroke-linecap="round" stroke-linejoin="round" stroke-miterlimit="10" points="
			282.746,111.065 228.425,111.065 215.551,147.286 295.619,147.286 		"/>
		
			<polygon fill="none" stroke="#000000" stroke-width="4" stroke-linecap="round" stroke-linejoin="round" stroke-miterlimit="10" points="
			273.218,111.065 237.952,111.065 242.243,87.874 268.927,87.874 		"/>
	</g>
	<g>
		<g>
			
				<polygon fill="none" stroke="#000000" stroke-width="4" stroke-linecap="round" stroke-linejoin="round" stroke-miterlimit="10" points="
				470.313,177.991 478.403,177.991 521.315,113.797 427.401,113.797 			"/>
			
				<rect x="471.175" y="177.991" fill="none" stroke="#000000" stroke-width="4" stroke-linecap="round" stroke-linejoin="round" stroke-miterlimit="10" width="6.369" height="63.599"/>
			
				<polygon fill="none" stroke="#000000" stroke-width="4" stroke-linecap="round" stroke-linejoin="round" stroke-miterlimit="10" points="
				471.175,241.59 477.544,241.59 507.583,253.791 441.136,253.791 			"/>
		</g>
		<g>
			<path fill="none" stroke="#000000" stroke-width="4" stroke-linecap="round" stroke-linejoin="round" stroke-miterlimit="10" d="
				M545.038,88.605c0,0-7.287,23.792-7.287,38.893c0,31.093,10.055,56.295,33.047,56.295c22.99,0,33.045-25.202,33.045-56.295
				c0-15.101-7.287-38.893-7.287-38.893H545.038z"/>
			
				<rect x="567.613" y="183.793" fill="none" stroke="#000000" stroke-width="4" stroke-linecap="round" stroke-linejoin="round" stroke-miterlimit="10" width="6.37" height="63.599"/>
			
				<polygon fill="none" stroke="#000000" stroke-width="4" stroke-linecap="round" stroke-linejoin="round" stroke-miterlimit="10" points="
				567.613,247.392 573.983,247.392 599.73,259.593 541.866,259.593 			"/>
		</g>
	</g>
	<g>
		<g>
			<g>
				
					<rect x="893.18" y="183.793" fill="none" stroke="#000000" stroke-width="4" stroke-linecap="round" stroke-linejoin="round" stroke-miterlimit="10" width="6.37" height="63.599"/>
				
					<polygon fill="none" stroke="#000000" stroke-width="4" stroke-linecap="round" stroke-linejoin="round" stroke-miterlimit="10" points="
					893.18,247.392 899.55,247.392 925.297,259.593 867.433,259.593 				"/>
			</g>
			<path fill="none" stroke="#000000" stroke-width="4" stroke-linecap="round" stroke-linejoin="round" stroke-miterlimit="10" d="
				M824.177,88.605c0,22.646,13.8,33.969,26.891,33.969c13.092,0,15.22,17.339,15.22,32.557c0,15.217,10.967,28.662,30.076,28.662
				c19.105,0,30.076-13.445,30.076-28.662c0-15.218,2.125-32.557,15.216-32.557s26.891-11.323,26.891-33.969H824.177z"/>
		</g>
		<g>
			<g>
				
					<path fill="none" stroke="#000000" stroke-width="4" stroke-linecap="round" stroke-linejoin="round" stroke-miterlimit="10" d="
					M735.496,63.192c0,0-3.332,74.185-3.332,90.979c0,34.578,11.181,62.607,36.751,62.607c25.567,0,36.752-28.029,36.752-62.607
					c0-16.794-3.332-90.979-3.332-90.979H735.496z"/>
			</g>
			
				<polyline fill="none" stroke="#000000" stroke-width="4" stroke-linecap="round" stroke-linejoin="round" stroke-miterlimit="10" points="
				780.448,214.602 780.448,243.643 757.383,243.643 757.383,214.602 			"/>
			
				<polygon fill="none" stroke="#000000" stroke-width="4" stroke-linecap="round" stroke-linejoin="round" stroke-miterlimit="10" points="
				800.069,253.059 780.448,243.643 757.383,243.643 737.759,253.059 			"/>
			
				<rect x="737.759" y="253.059" fill="none" stroke="#000000" stroke-width="4" stroke-linecap="round" stroke-linejoin="round" stroke-miterlimit="10" width="62.31" height="6.534"/>
		</g>
	</g>
	<g>
		<g>
			<path fill="none" stroke="#000000" stroke-width="4" stroke-linecap="round" stroke-linejoin="round" stroke-miterlimit="10" d="
				M107.922,534.105c13.116-13.117,19.901-12.093,24.72-7.271c4.819,4.819,5.846,11.606-7.271,24.721
				c-13.112,13.116-19.901,12.092-24.72,7.271C95.832,554.006,94.805,547.222,107.922,534.105z"/>
			
				<line fill="none" stroke="#000000" stroke-width="4" stroke-linecap="round" stroke-linejoin="round" stroke-miterlimit="10" x1="132.642" y1="526.834" x2="268.753" y2="390.726"/>
			
				<line fill="none" stroke="#000000" stroke-width="4" stroke-linecap="round" stroke-linejoin="round" stroke-miterlimit="10" x1="277.478" y1="399.45" x2="260.028" y2="381.998"/>
		</g>
		<g>
			
				<line fill="none" stroke="#000000" stroke-width="4" stroke-linecap="round" stroke-linejoin="round" stroke-miterlimit="10" x1="144.107" y1="581.344" x2="285.453" y2="440.001"/>
			<path fill="none" stroke="#000000" stroke-width="4" stroke-linecap="round" stroke-linejoin="round" stroke-miterlimit="10" d="
				M301.741,439.996c-4.5,4.499-11.792,4.499-16.289,0.005c-4.497-4.501-4.497-11.793,0-16.287c4.497-4.499,11.789-4.499,16.289,0
				C306.234,428.208,306.234,435.5,301.741,439.996z"/>
		</g>
	</g>
	<g>
		<g>
			
				<rect x="441.377" y="469.937" fill="none" stroke="#000000" stroke-width="4" stroke-linecap="round" stroke-linejoin="round" stroke-miterlimit="10" width="148.492" height="11.847"/>
			
				<polygon fill="none" stroke="#000000" stroke-width="4" stroke-linecap="round" stroke-linejoin="round" stroke-miterlimit="10" points="
				576.413,627.115 454.833,627.115 448.105,481.783 583.142,481.783 			"/>
		</g>
		<g>
			<g>
				
					<path fill="none" stroke="#000000" stroke-width="4" stroke-linecap="round" stroke-linejoin="round" stroke-miterlimit="10" d="
					M462.261,460.277c3.644-17.571,11.18-36.538,3.153-66.499l-6.667-24.88l27.726-7.428l6.665,24.878
					c11.568,43.167,39.702,50.413,48.364,75.701"/>
			</g>
			<path fill="none" stroke="#000000" stroke-width="4" stroke-linecap="round" stroke-linejoin="round" stroke-miterlimit="10" d="
				M486.439,357.473c0.553,2.064-0.67,4.187-2.734,4.74l-22.191,5.946c-2.062,0.553-4.184-0.673-4.738-2.736l-2.221-8.296
				c-0.553-2.063,0.67-4.187,2.734-4.739l22.191-5.946c2.063-0.554,4.185,0.672,4.737,2.736L486.439,357.473z"/>
			<path fill="none" stroke="#000000" stroke-width="4" stroke-linecap="round" stroke-linejoin="round" stroke-miterlimit="10" d="
				M481.515,339.097c-0.553-2.063-2.673-3.289-4.737-2.736l-22.191,5.946c-2.062,0.554-3.287,2.676-2.734,4.74l0.7,2.606
				c0.553,2.063,2.673,3.287,4.737,2.734l22.191-5.946c2.063-0.554,3.29-2.672,2.736-4.738L481.515,339.097z"/>
		</g>
		<g>
			
				<polyline fill="none" stroke="#000000" stroke-width="4" stroke-linecap="round" stroke-linejoin="round" stroke-miterlimit="10" points="
				443.137,469.937 457.53,455.542 471.923,469.937 			"/>
			
				<polyline fill="none" stroke="#000000" stroke-width="4" stroke-linecap="round" stroke-linejoin="round" stroke-miterlimit="10" points="
				487.071,464.729 496.26,455.542 510.652,469.937 			"/>
			
				<polyline fill="none" stroke="#000000" stroke-width="4" stroke-linecap="round" stroke-linejoin="round" stroke-miterlimit="10" points="
				466.716,464.728 466.716,459.757 487.069,459.76 487.074,469.937 			"/>
			
				<polyline fill="none" stroke="#000000" stroke-width="4" stroke-linecap="round" stroke-linejoin="round" stroke-miterlimit="10" points="
				525.801,464.729 534.987,455.542 549.38,469.937 			"/>
			
				<polyline fill="none" stroke="#000000" stroke-width="4" stroke-linecap="round" stroke-linejoin="round" stroke-miterlimit="10" points="
				505.445,464.728 505.445,459.757 525.799,459.76 525.804,469.937 			"/>
			
				<polyline fill="none" stroke="#000000" stroke-width="4" stroke-linecap="round" stroke-linejoin="round" stroke-miterlimit="10" points="
				564.529,464.731 573.717,455.542 588.109,469.937 			"/>
			
				<polyline fill="none" stroke="#000000" stroke-width="4" stroke-linecap="round" stroke-linejoin="round" stroke-miterlimit="10" points="
				544.173,464.728 544.173,459.757 564.526,459.76 564.531,469.937 			"/>
		</g>
	</g>
	<g>
		<g>
			
				<circle fill="none" stroke="#000000" stroke-width="4" stroke-linecap="round" stroke-linejoin="round" stroke-miterlimit="10" cx="775.664" cy="546.36" r="74.692"/>
			
				<circle fill="none" stroke="#000000" stroke-width="4" stroke-linecap="round" stroke-linejoin="round" stroke-miterlimit="10" cx="775.664" cy="546.36" r="60.761"/>
			
				<line fill="none" stroke="#000000" stroke-width="4" stroke-linecap="round" stroke-linejoin="round" stroke-miterlimit="10" x1="775.665" y1="471.667" x2="775.665" y2="485.601"/>
			
				<line fill="none" stroke="#000000" stroke-width="4" stroke-linecap="round" stroke-linejoin="round" stroke-miterlimit="10" x1="738.318" y1="481.674" x2="745.285" y2="493.739"/>
			
				<line fill="none" stroke="#000000" stroke-width="4" stroke-linecap="round" stroke-linejoin="round" stroke-miterlimit="10" x1="710.979" y1="509.014" x2="723.047" y2="515.979"/>
			
				<line fill="none" stroke="#000000" stroke-width="4" stroke-linecap="round" stroke-linejoin="round" stroke-miterlimit="10" x1="700.974" y1="546.36" x2="714.905" y2="546.36"/>
			
				<line fill="none" stroke="#000000" stroke-width="4" stroke-linecap="round" stroke-linejoin="round" stroke-miterlimit="10" x1="710.979" y1="583.705" x2="723.047" y2="576.736"/>
			
				<line fill="none" stroke="#000000" stroke-width="4" stroke-linecap="round" stroke-linejoin="round" stroke-miterlimit="10" x1="738.318" y1="611.043" x2="745.287" y2="598.978"/>
			
				<line fill="none" stroke="#000000" stroke-width="4" stroke-linecap="round" stroke-linejoin="round" stroke-miterlimit="10" x1="775.665" y1="621.052" x2="775.667" y2="607.116"/>
			
				<line fill="none" stroke="#000000" stroke-width="4" stroke-linecap="round" stroke-linejoin="round" stroke-miterlimit="10" x1="813.009" y1="611.043" x2="806.047" y2="598.976"/>
			
				<line fill="none" stroke="#000000" stroke-width="4" stroke-linecap="round" stroke-linejoin="round" stroke-miterlimit="10" x1="840.351" y1="583.705" x2="828.282" y2="576.734"/>
			
				<line fill="none" stroke="#000000" stroke-width="4" stroke-linecap="round" stroke-linejoin="round" stroke-miterlimit="10" x1="850.356" y1="546.36" x2="836.422" y2="546.358"/>
			
				<line fill="none" stroke="#000000" stroke-width="4" stroke-linecap="round" stroke-linejoin="round" stroke-miterlimit="10" x1="840.351" y1="509.014" x2="828.28" y2="515.979"/>
			
				<line fill="none" stroke="#000000" stroke-width="4" stroke-linecap="round" stroke-linejoin="round" stroke-miterlimit="10" x1="813.009" y1="481.674" x2="806.042" y2="493.739"/>
			<path fill="none" stroke="#000000" stroke-width="4" stroke-linecap="round" stroke-linejoin="round" stroke-miterlimit="10" d="
				M755.351,603.629c6.355,2.257,13.19,3.493,20.314,3.493c7.049,0,13.812-1.215,20.107-3.424V489.021
				c-6.294-2.206-13.058-3.42-20.107-3.42c-7.124,0-13.959,1.236-20.314,3.491V603.629z"/>
			
				<circle fill="none" stroke="#000000" stroke-width="4" stroke-linecap="round" stroke-linejoin="round" stroke-miterlimit="10" cx="775.56" cy="587.936" r="7.715"/>
		</g>
		<g>
			
				<circle fill="none" stroke="#000000" stroke-width="4" stroke-linecap="round" stroke-linejoin="round" stroke-miterlimit="10" cx="925.048" cy="546.36" r="74.692"/>
			
				<circle fill="none" stroke="#000000" stroke-width="4" stroke-linecap="round" stroke-linejoin="round" stroke-miterlimit="10" cx="925.048" cy="546.36" r="60.761"/>
			
				<line fill="none" stroke="#000000" stroke-width="4" stroke-linecap="round" stroke-linejoin="round" stroke-miterlimit="10" x1="925.049" y1="471.667" x2="925.049" y2="485.601"/>
			
				<line fill="none" stroke="#000000" stroke-width="4" stroke-linecap="round" stroke-linejoin="round" stroke-miterlimit="10" x1="887.703" y1="481.674" x2="894.669" y2="493.739"/>
			
				<line fill="none" stroke="#000000" stroke-width="4" stroke-linecap="round" stroke-linejoin="round" stroke-miterlimit="10" x1="860.365" y1="509.014" x2="872.432" y2="515.979"/>
			
				<line fill="none" stroke="#000000" stroke-width="4" stroke-linecap="round" stroke-linejoin="round" stroke-miterlimit="10" x1="850.358" y1="546.36" x2="864.29" y2="546.36"/>
			
				<line fill="none" stroke="#000000" stroke-width="4" stroke-linecap="round" stroke-linejoin="round" stroke-miterlimit="10" x1="860.365" y1="583.705" x2="872.432" y2="576.736"/>
			
				<line fill="none" stroke="#000000" stroke-width="4" stroke-linecap="round" stroke-linejoin="round" stroke-miterlimit="10" x1="887.703" y1="611.043" x2="894.672" y2="598.978"/>
			
				<line fill="none" stroke="#000000" stroke-width="4" stroke-linecap="round" stroke-linejoin="round" stroke-miterlimit="10" x1="925.049" y1="621.052" x2="925.052" y2="607.116"/>
			
				<line fill="none" stroke="#000000" stroke-width="4" stroke-linecap="round" stroke-linejoin="round" stroke-miterlimit="10" x1="962.396" y1="611.043" x2="955.432" y2="598.976"/>
			
				<line fill="none" stroke="#000000" stroke-width="4" stroke-linecap="round" stroke-linejoin="round" stroke-miterlimit="10" x1="989.736" y1="583.705" x2="977.667" y2="576.734"/>
			
				<line fill="none" stroke="#000000" stroke-width="4" stroke-linecap="round" stroke-linejoin="round" stroke-miterlimit="10" x1="999.741" y1="546.36" x2="985.807" y2="546.358"/>
			
				<line fill="none" stroke="#000000" stroke-width="4" stroke-linecap="round" stroke-linejoin="round" stroke-miterlimit="10" x1="989.736" y1="509.014" x2="977.665" y2="515.979"/>
			
				<line fill="none" stroke="#000000" stroke-width="4" stroke-linecap="round" stroke-linejoin="round" stroke-miterlimit="10" x1="962.396" y1="481.674" x2="955.427" y2="493.739"/>
			<path fill="none" stroke="#000000" stroke-width="4" stroke-linecap="round" stroke-linejoin="round" stroke-miterlimit="10" d="
				M904.735,603.629c6.355,2.257,13.19,3.493,20.314,3.493c7.051,0,13.812-1.215,20.107-3.424V489.021
				c-6.294-2.206-13.056-3.42-20.107-3.42c-7.124,0-13.958,1.236-20.314,3.491V603.629z"/>
			
				<circle fill="none" stroke="#000000" stroke-width="4" stroke-linecap="round" stroke-linejoin="round" stroke-miterlimit="10" cx="924.945" cy="587.936" r="7.715"/>
		</g>
		<g>
			
				<circle fill="none" stroke="#000000" stroke-width="4" stroke-linecap="round" stroke-linejoin="round" stroke-miterlimit="10" cx="850.357" cy="416.981" r="74.692"/>
			
				<circle fill="none" stroke="#000000" stroke-width="4" stroke-linecap="round" stroke-linejoin="round" stroke-miterlimit="10" cx="850.357" cy="416.981" r="60.761"/>
			
				<line fill="none" stroke="#000000" stroke-width="4" stroke-linecap="round" stroke-linejoin="round" stroke-miterlimit="10" x1="850.358" y1="342.288" x2="850.358" y2="356.22"/>
			
				<line fill="none" stroke="#000000" stroke-width="4" stroke-linecap="round" stroke-linejoin="round" stroke-miterlimit="10" x1="813.011" y1="352.298" x2="819.979" y2="364.36"/>
			
				<line fill="none" stroke="#000000" stroke-width="4" stroke-linecap="round" stroke-linejoin="round" stroke-miterlimit="10" x1="785.674" y1="379.633" x2="797.741" y2="386.6"/>
			
				<line fill="none" stroke="#000000" stroke-width="4" stroke-linecap="round" stroke-linejoin="round" stroke-miterlimit="10" x1="775.667" y1="416.979" x2="789.599" y2="416.979"/>
			
				<line fill="none" stroke="#000000" stroke-width="4" stroke-linecap="round" stroke-linejoin="round" stroke-miterlimit="10" x1="785.674" y1="454.326" x2="797.741" y2="447.359"/>
			
				<line fill="none" stroke="#000000" stroke-width="4" stroke-linecap="round" stroke-linejoin="round" stroke-miterlimit="10" x1="813.011" y1="481.664" x2="819.98" y2="469.597"/>
			
				<line fill="none" stroke="#000000" stroke-width="4" stroke-linecap="round" stroke-linejoin="round" stroke-miterlimit="10" x1="850.358" y1="491.671" x2="850.36" y2="477.737"/>
			
				<line fill="none" stroke="#000000" stroke-width="4" stroke-linecap="round" stroke-linejoin="round" stroke-miterlimit="10" x1="887.703" y1="481.664" x2="880.74" y2="469.597"/>
			
				<line fill="none" stroke="#000000" stroke-width="4" stroke-linecap="round" stroke-linejoin="round" stroke-miterlimit="10" x1="915.044" y1="454.326" x2="902.976" y2="447.357"/>
			
				<line fill="none" stroke="#000000" stroke-width="4" stroke-linecap="round" stroke-linejoin="round" stroke-miterlimit="10" x1="925.049" y1="416.979" x2="911.116" y2="416.978"/>
			
				<line fill="none" stroke="#000000" stroke-width="4" stroke-linecap="round" stroke-linejoin="round" stroke-miterlimit="10" x1="915.044" y1="379.633" x2="902.973" y2="386.6"/>
			
				<line fill="none" stroke="#000000" stroke-width="4" stroke-linecap="round" stroke-linejoin="round" stroke-miterlimit="10" x1="887.703" y1="352.298" x2="880.736" y2="364.362"/>
			<path fill="none" stroke="#000000" stroke-width="4" stroke-linecap="round" stroke-linejoin="round" stroke-miterlimit="10" d="
				M830.044,474.251c6.355,2.254,13.19,3.492,20.314,3.492c7.051,0,13.812-1.217,20.107-3.422V359.644
				c-6.294-2.211-13.056-3.424-20.107-3.424c-7.124,0-13.958,1.238-20.314,3.491V474.251z"/>
			
				<circle fill="none" stroke="#000000" stroke-width="4" stroke-linecap="round" stroke-linejoin="round" stroke-miterlimit="10" cx="850.253" cy="458.557" r="7.715"/>
		</g>
	</g>
	<g>
		<g>
			<g>
				<g>
					
						<path fill="none" stroke="#000000" stroke-width="4" stroke-linecap="round" stroke-linejoin="round" stroke-miterlimit="10" d="
						M1261.646,384.129c0,0,1.761,29.679,2.623,36.157c2.615,19.602,18.714,25.268,18.714,44.871"/>
					
						<path fill="none" stroke="#000000" stroke-width="4" stroke-linecap="round" stroke-linejoin="round" stroke-miterlimit="10" d="
						M1240.65,384.129c0,0-1.758,29.679-2.623,36.157c-2.615,19.602-18.711,25.268-18.711,44.871"/>
				</g>
				
					<rect x="1237.229" y="373.24" fill="none" stroke="#000000" stroke-width="4" stroke-linecap="round" stroke-linejoin="round" stroke-miterlimit="10" width="27.836" height="10.889"/>
			</g>
			<g>
				<g>
					
						<path fill="none" stroke="#000000" stroke-width="4" stroke-linecap="round" stroke-linejoin="round" stroke-miterlimit="10" d="
						M1197.979,384.129c0,0,1.763,29.679,2.628,36.157c2.61,19.602,18.709,25.268,18.709,44.871"/>
					
						<path fill="none" stroke="#000000" stroke-width="4" stroke-linecap="round" stroke-linejoin="round" stroke-miterlimit="10" d="
						M1176.987,384.129c0,0-1.758,29.679-2.624,36.157c-2.614,19.602-18.711,25.268-18.711,44.871"/>
				</g>
				
					<rect x="1173.567" y="373.24" fill="none" stroke="#000000" stroke-width="4" stroke-linecap="round" stroke-linejoin="round" stroke-miterlimit="10" width="27.836" height="10.889"/>
			</g>
			<g>
				<g>
					
						<path fill="none" stroke="#000000" stroke-width="4" stroke-linecap="round" stroke-linejoin="round" stroke-miterlimit="10" d="
						M1134.316,384.129c0,0,1.76,29.679,2.625,36.157c2.615,19.602,18.711,25.268,18.711,44.871"/>
					
						<path fill="none" stroke="#000000" stroke-width="4" stroke-linecap="round" stroke-linejoin="round" stroke-miterlimit="10" d="
						M1113.325,384.129c0,0-1.762,29.679-2.627,36.157c-2.611,19.602-18.709,25.268-18.709,44.871"/>
				</g>
				
					<rect x="1109.901" y="373.24" fill="none" stroke="#000000" stroke-width="4" stroke-linecap="round" stroke-linejoin="round" stroke-miterlimit="10" width="27.841" height="10.889"/>
			</g>
		</g>
		
			<rect x="1080.968" y="465.157" fill="none" stroke="#000000" stroke-width="4" stroke-linecap="round" stroke-linejoin="round" stroke-miterlimit="10" width="213.031" height="124.945"/>
		
			<rect x="1124.228" y="499.761" fill="none" stroke="#000000" stroke-width="4" stroke-linecap="round" stroke-linejoin="round" stroke-miterlimit="10" width="126.515" height="55.733"/>
	</g>
	<g>
		<g>
			<g>
				
					<rect x="539.715" y="851.243" transform="matrix(0.9794 -0.2017 0.2017 0.9794 -163.9758 130.4946)" fill="none" stroke="#000000" stroke-width="4" stroke-linecap="round" stroke-linejoin="round" stroke-miterlimit="10" width="37.277" height="37.278"/>
				
					<rect x="579.757" y="819.371" transform="matrix(1 -0.0048 0.0048 1 -4.0107 2.8785)" fill="none" stroke="#000000" stroke-width="4" stroke-linecap="round" stroke-linejoin="round" stroke-miterlimit="10" width="37.276" height="37.278"/>
			</g>
			
				<polygon fill="none" stroke="#000000" stroke-width="4" stroke-linecap="round" stroke-linejoin="round" stroke-miterlimit="10" points="
				634.367,932.019 512.743,932.019 505.73,795.555 641.38,795.555 			"/>
			
				<line fill="none" stroke="#000000" stroke-width="4" stroke-linecap="round" stroke-linejoin="round" stroke-miterlimit="10" x1="507.767" y1="836.047" x2="639.34" y2="836.047"/>
			
				<line fill="none" stroke="#000000" stroke-width="4" stroke-linecap="round" stroke-linejoin="round" stroke-miterlimit="10" x1="511.845" y1="914.562" x2="635.267" y2="914.562"/>
		</g>
		<g>
			<g>
				<g>
					
						<path fill="none" stroke="#000000" stroke-width="4" stroke-linecap="round" stroke-linejoin="round" stroke-miterlimit="10" d="
						M474.854,764.521v151.011c0,9.106-7.382,16.486-16.49,16.486h-52.012c-9.106,0-16.488-7.38-16.488-16.486V764.521H474.854z"/>
				</g>
				
					<line fill="none" stroke="#000000" stroke-width="4" stroke-linecap="round" stroke-linejoin="round" stroke-miterlimit="10" x1="389.864" y1="795.909" x2="474.854" y2="795.909"/>
			</g>
			
				<line fill="none" stroke="#000000" stroke-width="4" stroke-linecap="round" stroke-linejoin="round" stroke-miterlimit="10" x1="414.104" y1="917.24" x2="461.633" y2="734.138"/>
			
				<circle fill="none" stroke="#000000" stroke-width="4" stroke-linecap="round" stroke-linejoin="round" stroke-miterlimit="10" cx="464.887" cy="722.84" r="11.298"/>
			
				<rect x="406.622" y="868.128" transform="matrix(0.9795 -0.2016 0.2016 0.9795 -170.0565 103.9515)" fill="none" stroke="#000000" stroke-width="4" stroke-linecap="round" stroke-linejoin="round" stroke-miterlimit="10" width="37.276" height="37.278"/>
			
				<rect x="424.27" y="817.532" transform="matrix(1 -0.0048 0.0048 1 -4.0039 2.1332)" fill="none" stroke="#000000" stroke-width="4" stroke-linecap="round" stroke-linejoin="round" stroke-miterlimit="10" width="37.274" height="37.276"/>
		</g>
	</g>
	<g>
		<g>
			<g>
				
					<path fill="none" stroke="#000000" stroke-width="4" stroke-linecap="round" stroke-linejoin="round" stroke-miterlimit="10" d="
					M278.196,802.821V911.47c0,7.75-6.283,14.034-14.036,14.034h-60.194c-7.75,0-14.035-6.284-14.035-14.034V802.821H278.196z"/>
				
					<path fill="none" stroke="#000000" stroke-width="4" stroke-linecap="round" stroke-linejoin="round" stroke-miterlimit="10" d="
					M278.196,821.535h6.431c5.997,0,10.86,4.865,10.86,10.861l0.002,39.128c0,5.999-4.865,10.864-10.862,10.864h-6.431"/>
			</g>
			
				<line fill="none" stroke="#000000" stroke-width="4" stroke-linecap="round" stroke-linejoin="round" stroke-miterlimit="10" x1="189.932" y1="901.299" x2="278.196" y2="901.299"/>
			
				<line fill="none" stroke="#000000" stroke-width="4" stroke-linecap="round" stroke-linejoin="round" stroke-miterlimit="10" x1="208.205" y1="901.299" x2="208.205" y2="840.879"/>
			
				<line fill="none" stroke="#000000" stroke-width="4" stroke-linecap="round" stroke-linejoin="round" stroke-miterlimit="10" x1="234.063" y1="901.299" x2="234.063" y2="840.879"/>
			
				<line fill="none" stroke="#000000" stroke-width="4" stroke-linecap="round" stroke-linejoin="round" stroke-miterlimit="10" x1="259.921" y1="901.299" x2="259.921" y2="840.879"/>
			<path fill="none" stroke="#000000" stroke-width="4" stroke-linecap="round" stroke-linejoin="round" stroke-miterlimit="10" d="
				M276.229,802.821c0-13.73-11.133-24.862-24.863-24.862c-2.33,0-4.574,0.344-6.711,0.942c-3.571-7.675-11.891-12.39-20.666-10.989
				c-9.569,1.527-16.358,9.802-16.348,19.188c-0.007,0-0.013,0-0.021,0c-8.683,0-15.721,7.038-15.721,15.721"/>
		</g>
		<g>
			<g>
				<g>
					
						<path fill="none" stroke="#000000" stroke-width="4" stroke-linecap="round" stroke-linejoin="round" stroke-miterlimit="10" d="
						M128.307,728.947c0,0-1.762,29.678-2.627,36.157c-2.611,19.602-18.709,25.267-18.709,44.87v100.319h63.663V809.975
						c0-19.604-16.096-25.269-18.711-44.87c-0.865-6.479-2.625-36.157-2.625-36.157"/>
				</g>
				
					<rect x="124.883" y="718.059" fill="none" stroke="#000000" stroke-width="4" stroke-linecap="round" stroke-linejoin="round" stroke-miterlimit="10" width="27.841" height="10.889"/>
			</g>
			<path fill="none" stroke="#000000" stroke-width="4" stroke-linecap="round" stroke-linejoin="round" stroke-miterlimit="10" d="
				M106.971,915.507c0,5.249,4.255,9.505,9.504,9.505h44.655c5.249,0,9.504-4.256,9.504-9.505v-5.213h-63.663V915.507z"/>
			
				<rect x="129.724" y="814.591" fill="none" stroke="#000000" stroke-width="4" stroke-linecap="round" stroke-linejoin="round" stroke-miterlimit="10" width="40.91" height="75.383"/>
		</g>
	</g>
	<g>
		<path fill="none" stroke="#000000" stroke-width="4" stroke-linecap="round" stroke-linejoin="round" stroke-miterlimit="10" d="
			M886.873,801.477c33.824,14.261,57.568,47.727,57.568,86.737c0,42.455-42.128,58.434-94.085,58.434s-94.085-15.979-94.085-58.434
			c0-38.969,23.694-72.41,57.464-86.691"/>
		<path fill="none" stroke="#000000" stroke-width="4" stroke-linecap="round" stroke-linejoin="round" stroke-miterlimit="10" d="
			M909.021,755.581c0,32.397-26.267,58.66-58.665,58.66c-32.397,0-58.665-26.263-58.665-58.66c0-32.402,26.267-58.664,58.665-58.664
			C882.754,696.917,909.021,723.179,909.021,755.581z"/>
		<path fill="none" stroke="#000000" stroke-width="4" stroke-linecap="round" stroke-linejoin="round" stroke-miterlimit="10" d="
			M917.597,822.421c-15.828,41.592-22.998,77.707,1.586,109.598"/>
		<path fill="none" stroke="#000000" stroke-width="4" stroke-linecap="round" stroke-linejoin="round" stroke-miterlimit="10" d="
			M783.118,822.421c15.83,41.592,22.996,77.707-1.588,109.598"/>
		
			<polyline fill="none" stroke="#000000" stroke-width="4" stroke-linecap="round" stroke-linejoin="round" stroke-miterlimit="10" points="
			813.833,801.48 850.356,859.186 886.879,801.48 		"/>
		
			<circle fill="none" stroke="#000000" stroke-width="4" stroke-linecap="round" stroke-linejoin="round" stroke-miterlimit="10" cx="850.356" cy="888.649" r="7.694"/>
		
			<circle fill="none" stroke="#000000" stroke-width="4" stroke-linecap="round" stroke-linejoin="round" stroke-miterlimit="10" cx="850.356" cy="924.324" r="7.694"/>
		<g>
			
				<circle fill="none" stroke="#000000" stroke-width="4" stroke-linecap="round" stroke-linejoin="round" stroke-miterlimit="10" cx="875.312" cy="753.787" r="15.374"/>
			
				<circle fill="none" stroke="#000000" stroke-width="4" stroke-linecap="round" stroke-linejoin="round" stroke-miterlimit="10" cx="825.4" cy="753.787" r="15.375"/>
			
				<line fill="none" stroke="#000000" stroke-width="4" stroke-linecap="round" stroke-linejoin="round" stroke-miterlimit="10" x1="840.774" y1="753.787" x2="859.938" y2="753.787"/>
			
				<line fill="none" stroke="#000000" stroke-width="4" stroke-linecap="round" stroke-linejoin="round" stroke-miterlimit="10" x1="890.687" y1="753.787" x2="908.977" y2="753.787"/>
			
				<line fill="none" stroke="#000000" stroke-width="4" stroke-linecap="round" stroke-linejoin="round" stroke-miterlimit="10" x1="791.691" y1="753.787" x2="809.981" y2="753.787"/>
		</g>
	</g>
	<g>
		
			<polygon fill="none" stroke="#000000" stroke-width="4" stroke-linecap="round" stroke-linejoin="round" stroke-miterlimit="10" points="
			1234.728,720.711 1140.239,720.711 1135.948,702.042 1239.019,702.042 		"/>
		
			<rect x="1175.321" y="720.711" fill="none" stroke="#000000" stroke-width="4" stroke-linecap="round" stroke-linejoin="round" stroke-miterlimit="10" width="24.322" height="18.81"/>
		
			<rect x="1175.321" y="758.33" fill="none" stroke="#000000" stroke-width="4" stroke-linecap="round" stroke-linejoin="round" stroke-miterlimit="10" width="24.322" height="10.227"/>
		
			<rect x="1179.612" y="739.521" fill="none" stroke="#000000" stroke-width="4" stroke-linecap="round" stroke-linejoin="round" stroke-miterlimit="10" width="15.74" height="18.81"/>
		
			<rect x="1175.321" y="778.784" fill="none" stroke="#000000" stroke-width="4" stroke-linecap="round" stroke-linejoin="round" stroke-miterlimit="10" width="24.322" height="10.228"/>
		
			<rect x="1166.739" y="789.012" fill="none" stroke="#000000" stroke-width="4" stroke-linecap="round" stroke-linejoin="round" stroke-miterlimit="10" width="41.486" height="31.878"/>
		
			<rect x="1179.612" y="768.557" fill="none" stroke="#000000" stroke-width="4" stroke-linecap="round" stroke-linejoin="round" stroke-miterlimit="10" width="15.74" height="10.228"/>
		
			<rect x="1179.612" y="820.89" fill="none" stroke="#000000" stroke-width="4" stroke-linecap="round" stroke-linejoin="round" stroke-miterlimit="10" width="15.74" height="10.227"/>
		
			<line fill="none" stroke="#000000" stroke-width="4" stroke-linecap="round" stroke-linejoin="round" stroke-miterlimit="10" x1="1208.226" y1="820.89" x2="1208.226" y2="906.343"/>
		
			<line fill="none" stroke="#000000" stroke-width="4" stroke-linecap="round" stroke-linejoin="round" stroke-miterlimit="10" x1="1166.739" y1="820.89" x2="1166.739" y2="906.343"/>
		<path fill="none" stroke="#000000" stroke-width="4" stroke-linecap="round" stroke-linejoin="round" stroke-miterlimit="10" d="
			M1217.491,915.607c0-5.116-4.148-9.265-9.266-9.265h-41.486c-5.117,0-9.266,4.148-9.266,9.265v19.539h60.018V915.607z"/>
		<path fill="none" stroke="#000000" stroke-width="4" stroke-linecap="round" stroke-linejoin="round" stroke-miterlimit="10" d="
			M1194.363,906.396c0-7.53-11.885-7.53-11.885-15.059c0-7.521,11.885-7.521,11.885-15.04c0-7.528-11.885-7.528-11.885-15.057
			c0-7.531,11.885-7.531,11.885-15.062c0-7.532-11.885-7.532-11.885-15.063"/>
		<path fill="none" stroke="#000000" stroke-width="4" stroke-linecap="round" stroke-linejoin="round" stroke-miterlimit="10" d="
			M1221.729,815.54c5.848,0,10.589-4.741,10.589-10.59c0-5.848-4.741-10.59-10.589-10.59h-13.503v21.18H1221.729z"/>
		<path fill="none" stroke="#000000" stroke-width="4" stroke-linecap="round" stroke-linejoin="round" stroke-miterlimit="10" d="
			M1217.399,815.54l19.558,72.676c3.448,12.876,25.586,29.573,14.281,53.305c15.671-21.862-4.773-41.5-8.36-54.891l-19.176-71.274"
			/>
		<path fill="none" stroke="#000000" stroke-width="4" stroke-linecap="round" stroke-linejoin="round" stroke-miterlimit="10" d="
			M1153.236,815.54c-5.848,0-10.589-4.741-10.589-10.59c0-5.848,4.741-10.59,10.589-10.59h13.503v21.18H1153.236z"/>
		<path fill="none" stroke="#000000" stroke-width="4" stroke-linecap="round" stroke-linejoin="round" stroke-miterlimit="10" d="
			M1157.565,815.54l-19.558,72.676c-3.448,12.876-25.586,29.573-14.281,53.305c-15.671-21.862,4.773-41.5,8.36-54.891l19.176-71.274
			"/>
	</g>
</g>
</svg>
